<svg version="1.1" xmlns="http://www.w3.org/2000/svg" viewBox="0 0 934.6340224340519 480.4175598502827" width="934.6340224340519" height="480.4175598502827">
  <!-- svg-source:excalidraw -->
  
  <defs>
    <style class="style-fonts">
      @font-face {
        font-family: "Virgil";
        src: url("https://excalidraw.com/Virgil.woff2");
      }
      @font-face {
        font-family: "Cascadia";
        src: url("https://excalidraw.com/Cascadia.woff2");
      }
      @font-face {
        font-family: "Assistant";
        src: url("https://excalidraw.com/Assistant-Regular.woff2");
      }
    </style>
    
  </defs>
  <rect x="0" y="0" width="934.6340224340519" height="480.4175598502827" fill="#ffffff"></rect><g stroke-linecap="round" transform="translate(332.27878325750737 30.426853397534614) rotate(0 119.75 64.94921875)"><path d="M32 0 C94.17 4.27, 152.1 -0.45, 207.5 0 C226.52 -1.14, 236.38 13.15, 239.5 32 C238.15 43.58, 238.09 59.97, 239.5 97.9 C237.61 117.44, 226.41 131.46, 207.5 129.9 C150.04 134.04, 92.25 130.04, 32 129.9 C9.33 126.87, -3.18 117.13, 0 97.9 C-3.35 81.69, 1.03 60.73, 0 32 C3.11 14.23, 10.3 -0.77, 32 0" stroke="none" stroke-width="0" fill="#ffec99"></path><path d="M32 0 C84.02 -1.25, 140.77 -1.72, 207.5 0 M32 0 C91.42 -0.16, 151.95 0.15, 207.5 0 M207.5 0 C226.99 0.2, 238.56 9.03, 239.5 32 M207.5 0 C230.64 1.69, 241.28 9.98, 239.5 32 M239.5 32 C238.19 50.69, 239.52 70.67, 239.5 97.9 M239.5 32 C240.59 50.72, 239.36 68.27, 239.5 97.9 M239.5 97.9 C240.98 119.71, 227.88 129.71, 207.5 129.9 M239.5 97.9 C241.72 120.58, 230.17 129.9, 207.5 129.9 M207.5 129.9 C166.74 130.8, 124.69 130, 32 129.9 M207.5 129.9 C141.09 132.2, 74.81 131.91, 32 129.9 M32 129.9 C12.28 130.17, 0 121.08, 0 97.9 M32 129.9 C12.83 128.73, -2.13 118.02, 0 97.9 M0 97.9 C-0.03 84.1, 2.36 67.19, 0 32 M0 97.9 C-1.3 84.24, -1.08 67.88, 0 32 M0 32 C1.91 11.18, 11.02 -0.7, 32 0 M0 32 C0.55 9.56, 10.41 -0.97, 32 0" stroke="#f08c00" stroke-width="2" fill="none"></path></g><g transform="translate(424.2990521000502 84.10263464753461) rotate(0 33.58815765380854 15.837890625)"><text x="0" y="0" font-family="Virgil, Segoe UI Emoji" font-size="25.340625000000014px" fill="#1e1e1e" text-anchor="start" style="white-space: pre;" direction="ltr" dominant-baseline="text-before-edge">track</text></g><g stroke-linecap="round" transform="translate(10 340.5191223502827) rotate(0 119.75 64.94921875)"><path d="M32 0 C88.71 2.57, 142.27 2.87, 207.5 0 C225.47 1.24, 238.55 14.1, 239.5 32 C240.08 52.14, 236.87 74.32, 239.5 97.9 C237.57 118.42, 227.77 128.33, 207.5 129.9 C147.3 134.21, 79.91 135.8, 32 129.9 C11.22 132.71, -2.98 122.24, 0 97.9 C-2.81 81.65, -1.37 66.97, 0 32 C0.19 9.75, 8.61 1.31, 32 0" stroke="none" stroke-width="0" fill="#ffec99"></path><path d="M32 0 C94.69 -0.03, 158.8 -0.25, 207.5 0 M32 0 C84.39 -0.67, 137.2 -0.61, 207.5 0 M207.5 0 C228.39 -0.33, 237.56 11.46, 239.5 32 M207.5 0 C227.15 -1.09, 237.73 9.84, 239.5 32 M239.5 32 C239.83 56.19, 238.56 81.89, 239.5 97.9 M239.5 32 C239.63 56.85, 239.77 83.63, 239.5 97.9 M239.5 97.9 C238.49 120.31, 227.3 131.28, 207.5 129.9 M239.5 97.9 C237.34 118.27, 230.32 131.3, 207.5 129.9 M207.5 129.9 C168.67 130.79, 126.48 130.03, 32 129.9 M207.5 129.9 C165.67 131.18, 122.26 130.9, 32 129.9 M32 129.9 C11.36 130.93, 1.67 118.43, 0 97.9 M32 129.9 C9.42 129.83, 2.19 119.99, 0 97.9 M0 97.9 C1.1 83.33, -1.06 71.5, 0 32 M0 97.9 C-0.59 82.26, -0.1 66.17, 0 32 M0 32 C0.67 9.38, 10.06 1.28, 32 0 M0 32 C2.01 12.73, 12.64 -1.18, 32 0" stroke="#f08c00" stroke-width="2" fill="none"></path></g><g transform="translate(95.93548631763451 394.1949036002827) rotate(0 37.87061309814453 15.837890625)"><text x="0" y="0" font-family="Virgil, Segoe UI Emoji" font-size="25.340625000000014px" fill="#1e1e1e" text-anchor="start" style="white-space: pre;" direction="ltr" dominant-baseline="text-before-edge">artist</text></g><g stroke-linecap="round" transform="translate(685.1340224340519 329.2365683092037) rotate(0 119.75 64.94921875)"><path d="M32 0 C64.31 1.39, 105.65 -1.08, 207.5 0 C232.24 2.98, 236.87 14.14, 239.5 32 C240.46 51.64, 241.85 74.66, 239.5 97.9 C239.77 116.32, 226.64 131.74, 207.5 129.9 C144.13 133.28, 86.3 132.91, 32 129.9 C10.46 127.06, -0.92 117.3, 0 97.9 C-0.36 86.94, -0.26 70.58, 0 32 C0.59 13.32, 14.22 -0.8, 32 0" stroke="none" stroke-width="0" fill="#ffec99"></path><path d="M32 0 C93.04 0.24, 156.74 -1.84, 207.5 0 M32 0 C91.1 0.14, 150.5 0.62, 207.5 0 M207.5 0 C230.66 0.2, 240.1 12.58, 239.5 32 M207.5 0 C229.87 2.07, 240.42 11.54, 239.5 32 M239.5 32 C240.53 54.47, 239 74.19, 239.5 97.9 M239.5 32 C238.9 50.2, 238.73 67.59, 239.5 97.9 M239.5 97.9 C240.82 117.54, 229.86 131.5, 207.5 129.9 M239.5 97.9 C238.1 118.95, 230.58 130.48, 207.5 129.9 M207.5 129.9 C172.08 132.44, 135.25 132, 32 129.9 M207.5 129.9 C143.71 129.09, 81.65 129.52, 32 129.9 M32 129.9 C10.81 128.08, 0.79 120.98, 0 97.9 M32 129.9 C9.56 131.88, 1.6 120.37, 0 97.9 M0 97.9 C1.78 84.73, 0.02 68.94, 0 32 M0 97.9 C0.24 82.67, 0.39 66.7, 0 32 M0 32 C1.02 11.21, 12.54 -0.22, 32 0 M0 32 C-1.74 9.82, 12.52 -0.73, 32 0" stroke="#f08c00" stroke-width="2" fill="none"></path></g><g transform="translate(775.0808324217745 382.9123495592037) rotate(0 33.43611145019531 15.837890625)"><text x="0" y="0" font-family="Virgil, Segoe UI Emoji" font-size="25.340625000000014px" fill="#1e1e1e" text-anchor="start" style="white-space: pre;" direction="ltr" dominant-baseline="text-before-edge">album</text></g><g mask="url(#mask-BDHjoBKHPwaam5lsFE_y7)" stroke-linecap="round"><g transform="translate(225.4962427258614 157.8201623027719) rotate(269.9413395369285 26.69921875 -55.3203125)"><path d="M0.72 -1.02 C-4.56 -7.98, -28.04 -24.37, -31.56 -40.62 C-35.08 -56.87, -31.7 -86.04, -20.4 -98.53 C-9.1 -111.03, 20.4 -119.12, 36.23 -115.59 C52.06 -112.06, 66.79 -90.42, 74.6 -77.37 C82.4 -64.32, 84.23 -50.93, 83.05 -37.29 C81.87 -23.65, 70.08 -2.43, 67.53 4.46 M-0.36 1.06 C-5.3 -5.26, -26.04 -22.61, -29.43 -39.52 C-32.81 -56.43, -31.68 -87.92, -20.67 -100.42 C-9.66 -112.93, 20.44 -118.46, 36.64 -114.56 C52.84 -110.66, 68.61 -90.22, 76.51 -77.01 C84.41 -63.8, 85.95 -49.22, 84.03 -35.28 C82.11 -21.35, 67.79 0.15, 64.99 6.59" stroke="#1e1e1e" stroke-width="2" fill="none"></path></g><g transform="translate(225.4962427258614 157.8201623027719) rotate(269.9413395369285 26.69921875 -55.3203125)"><path d="M68.2 -15.39 C65.71 -10.37, 65.03 -0.16, 64.99 6.59 M68.2 -15.39 C66.63 -7.28, 65.19 -0.03, 64.99 6.59" stroke="#1e1e1e" stroke-width="2" fill="none"></path></g><g transform="translate(225.4962427258614 157.8201623027719) rotate(269.9413395369285 26.69921875 -55.3203125)"><path d="M81.58 -8.19 C74.87 -5.32, 70.03 2.65, 64.99 6.59 M81.58 -8.19 C75.02 -2.77, 68.61 1.8, 64.99 6.59" stroke="#1e1e1e" stroke-width="2" fill="none"></path></g></g><mask id="mask-BDHjoBKHPwaam5lsFE_y7"><rect x="0" y="0" fill="#fff" width="439.8321802258614" height="378.0935998027719"></rect><rect x="159.3293688480269" y="80.83876744405461" fill="#000" width="65.43992614746094" height="25" opacity="1"></rect></mask><g transform="translate(158.16803980649047 80.48537212087854) rotate(0 93.27024030075592 22.417850350276353)"><text x="32.71996307373047" y="0" font-family="Virgil, Segoe UI Emoji" font-size="20px" fill="#1e1e1e" text-anchor="middle" style="white-space: pre;" direction="ltr" dominant-baseline="text-before-edge">follows</text></g><g mask="url(#mask-_bmJsltzUAT-ZprX2sGPo)" stroke-linecap="round"><g transform="translate(546.2030171201449 173.24125025712397) rotate(0 72.97711873242179 68.31014075607789)"><path d="M1.1 -1.16 C25.38 21.38, 121.85 112.63, 145.94 135.57 M0.22 0.84 C24.31 23.46, 120.91 113.74, 144.99 136.56" stroke="#1e1e1e" stroke-width="2" fill="none"></path></g><g transform="translate(546.2030171201449 173.24125025712397) rotate(0 72.97711873242179 68.31014075607789)"><path d="M117.42 124.72 C124.43 128.28, 133.54 131.6, 144.99 136.56 M117.42 124.72 C125.79 129.08, 134.4 131.56, 144.99 136.56" stroke="#1e1e1e" stroke-width="2" fill="none"></path></g><g transform="translate(546.2030171201449 173.24125025712397) rotate(0 72.97711873242179 68.31014075607789)"><path d="M131.48 109.77 C133.98 118.29, 138.54 126.45, 144.99 136.56 M131.48 109.77 C135.78 118.43, 140.3 125.26, 144.99 136.56" stroke="#1e1e1e" stroke-width="2" fill="none"></path></g></g><mask id="mask-_bmJsltzUAT-ZprX2sGPo"><rect x="0" y="0" fill="#fff" width="792.1572545849884" height="409.86153176927974"></rect><rect x="577.670171863309" y="229.05139101320174" fill="#000" width="83.01992797851562" height="25" opacity="1"></rect></mask><g transform="translate(577.670171863309 229.05139101320174) rotate(0 41.614029275430426 11.887494895355871)"><text x="41.50996398925781" y="0" font-family="Virgil, Segoe UI Emoji" font-size="20px" fill="#1e1e1e" text-anchor="middle" style="white-space: pre;" direction="ltr" dominant-baseline="text-before-edge">in_album</text></g><g mask="url(#mask-XLWabWV9lgJK9d2HgpJ0n)" stroke-linecap="round"><g transform="translate(340.9937295865062 178.20759452989046) rotate(0 -76.99042394103606 72.24236790309362)"><path d="M-0.32 -0.65 C-26.11 23.56, -128.8 120.52, -154.53 144.74 M1.71 1.62 C-24.3 25.49, -130.11 118.68, -155.76 142.76" stroke="#1e1e1e" stroke-width="2" fill="none"></path></g><g transform="translate(340.9937295865062 178.20759452989046) rotate(0 -76.99042394103606 72.24236790309362)"><path d="M-141.75 116.23 C-147.41 123.74, -150.37 131.91, -155.76 142.76 M-141.75 116.23 C-145.41 125.53, -151.25 132.51, -155.76 142.76" stroke="#1e1e1e" stroke-width="2" fill="none"></path></g><g transform="translate(340.9937295865062 178.20759452989046) rotate(0 -76.99042394103606 72.24236790309362)"><path d="M-127.98 131.44 C-137.97 134.07, -145.31 137.38, -155.76 142.76 M-127.98 131.44 C-136.03 136.08, -146.21 138.26, -155.76 142.76" stroke="#1e1e1e" stroke-width="2" fill="none"></path></g></g><mask id="mask-XLWabWV9lgJK9d2HgpJ0n"><rect x="0" y="0" fill="#fff" width="594.9745774685783" height="422.6923303360777"></rect><rect x="202.0333654599233" y="237.9499624329842" fill="#000" width="123.93988037109375" height="25" opacity="1"></rect></mask><g transform="translate(202.0333654599233 237.9499624329842) rotate(0 61.937373562641426 12.303695133700899)"><text x="61.969940185546875" y="0" font-family="Virgil, Segoe UI Emoji" font-size="20px" fill="#1e1e1e" text-anchor="middle" style="white-space: pre;" direction="ltr" dominant-baseline="text-before-edge">authored_by</text></g><g mask="url(#mask-H7ikbyFC_Y3X0QlgROWh9)" stroke-linecap="round"><g transform="translate(266.01755404924984 402.8610256562981) rotate(0 200.30273112121807 -0.11051172576071622)"><path d="M0.11 -0.61 C66.82 -0.56, 332.87 0.2, 399.79 0.41 M-1.29 1.69 C65.84 1.37, 334.96 -0.89, 402.07 -1.38" stroke="#1e1e1e" stroke-width="2" fill="none"></path></g><g transform="translate(266.01755404924984 402.8610256562981) rotate(0 200.30273112121807 -0.11051172576071622)"><path d="M373.96 9.1 C380.32 4.96, 389.76 5.27, 402.07 -1.38 M373.96 9.1 C383.85 4.31, 394.02 2.31, 402.07 -1.38" stroke="#1e1e1e" stroke-width="2" fill="none"></path></g><g transform="translate(266.01755404924984 402.8610256562981) rotate(0 200.30273112121807 -0.11051172576071622)"><path d="M373.8 -11.42 C380.23 -10.17, 389.71 -4.48, 402.07 -1.38 M373.8 -11.42 C383.68 -8.58, 393.9 -2.94, 402.07 -1.38" stroke="#1e1e1e" stroke-width="2" fill="none"></path></g></g><mask id="mask-H7ikbyFC_Y3X0QlgROWh9"><rect x="0" y="0" fill="#fff" width="766.623016291686" height="503.08204910781956"></rect><rect x="422.3803285054288" y="390.2505139305374" fill="#000" width="87.87991333007812" height="25" opacity="1"></rect></mask><g transform="translate(422.3803285054287 390.2505139305374) rotate(0 44.028408438395786 12.765551698673448)"><text x="43.93995666503906" y="0" font-family="Virgil, Segoe UI Emoji" font-size="20px" fill="#1e1e1e" text-anchor="middle" style="white-space: pre;" direction="ltr" dominant-baseline="text-before-edge">authored</text></g></svg>